<svg width="6761.596" height="1179.199" viewBox="0 0 1789.006 311.996"><path d="M76.08 605.998v-48.26l154.94-.423 18.627-18.627-.423-52.493-18.204-18.627H112.487l-46.99-46.99v-79.586l46.99-46.99h172.72v48.26l-147.743.423-19.05 18.203.423 41.487 18.627 19.05 118.11-.423 46.99 46.99v91.016l-46.99 46.99zm324.274 0-46.99-46.99v-127l46.99-47.413h101.6l46.99 47.413v82.127H404.587v31.327l18.627 18.626h121.92v41.91zm4.233-131.233h93.133v-31.75l-18.626-18.627h-55.88l-18.627 18.627zm219.71 131.233-46.99-46.99v-47.836l46.99-47.414H731.4v-18.626l-18.626-18.627H606.517v-41.91h129.117l46.99 47.413v173.99H731.4v-32.173l-32.596 32.173zm22.86-39.37 39.794-.423 44.45-44.45v-18.203h-84.244l-18.626 18.626v25.4zm196.85 39.37V384.595h51.223v39.37l39.793-39.37h49.954v51.223h-49.53l-40.217 40.217v129.963zm149.436 0 91.016-161.713-90.17-150.283h60.537l69.85 121.073h10.16l69.85-121.073h60.537l-89.747 150.283 91.017 161.713h-60.96l-70.697-129.963h-10.16l-70.273 129.963zm311.15 0V294.002h68.157l123.613 218.016V294.002h53.34v311.996h-57.997l-123.613-218.016h-10.583v218.016zm350.097 0-45.72-46.99V340.992l46.99-46.99h154.94l43.18 42.756-33.867 33.867-30.48-30.057h-109.22l-18.627 18.627.424 181.61 18.203 18.627h81.28l48.683-43.604v-34.713h-71.12v-46.567h115.147v171.45h-44.027v-32.173l-35.56 32.173z" aria-label="SearXNG" style="-inkscape-font-specification:&quot;Tomorrow Medium&quot;" transform="translate(-65.497 -294.002)" fill="#f65400" stroke-width=".264583"/></svg>