<?xml version="1.0" encoding="UTF-8" standalone="no"?>
<!-- Created with Inkscape (http://www.inkscape.org/) -->

<svg width="1789.0056mm" height="311.99643mm" viewBox="0 0 1789.0056 311.99643" version="1.1"
   id="svg1" inkscape:export-filename=".\searxng.svg" inkscape:export-xdpi="96"
   inkscape:export-ydpi="96" xmlns:inkscape="http://www.inkscape.org/namespaces/inkscape"
   xmlns:sodipodi="http://sodipodi.sourceforge.net/DTD/sodipodi-0.dtd"
   xmlns="http://www.w3.org/2000/svg" xmlns:svg="http://www.w3.org/2000/svg">
   <sodipodi:namedview id="namedview1" pagecolor="#ffffff" bordercolor="#000000"
      borderopacity="0.25" inkscape:showpageshadow="2" inkscape:pageopacity="0.0"
      inkscape:pagecheckerboard="0" inkscape:deskcolor="#d1d1d1" inkscape:document-units="mm"
      inkscape:zoom="0.17905709" inkscape:cx="3613.3728" inkscape:cy="304.37221"
      inkscape:window-width="2560" inkscape:window-height="1351" inkscape:window-x="-9"
      inkscape:window-y="-9" inkscape:window-maximized="1" inkscape:current-layer="layer1" />
   <defs id="defs1" />
   <g inkscape:label="Layer 1" inkscape:groupmode="layer" id="layer1"
      transform="translate(-65.497179,-294.0018)">
      <path
         style="-inkscape-font-specification:'Tomorrow Medium';fill:#f65400;stroke-width:0.264583"
         d="m 76.080504,605.99823 v -48.25996 l 154.939876,-0.42334 l 18.62666,-18.62665 L 249.2237,486.19499 L 231.02038,467.56834 H 112.48714 L 65.497179,420.57837 v -79.5866 L 112.48714,294.0018 h 172.71987 v 48.25997 l -147.74322,0.42333 l -19.04999,18.20332 l 0.42334,41.48663 l 18.62665,19.04999 l 118.10991,-0.42333 l 46.98996,46.98996 v 91.0166 l -46.98996,46.98996 z m 324.273116,0 L 353.36366,559.00827 V 432.00836 l 46.98996,-47.41329 h 101.59992 l 46.98997,47.41329 v 82.12661 H 404.58695 v 31.32664 l 18.62665,18.62665 h 121.91991 v 41.90997 z M 404.58695,474.765 h 93.13326 V 443.01502 L 479.09356,424.38837 H 423.2136 l -18.62665,18.62665 z m 219.7103,131.23323 l -46.98996,-46.98996 v -47.83663 l 46.98996,-47.4133 H 731.4005 V 445.13169 L 712.77385,426.50503 H 606.51726 v -41.90996 h 129.11657 l 46.98997,47.41329 v 173.98987 h -51.2233 v -32.17331 l -32.59664,32.17331 z m 22.85998,-39.36997 l 39.79331,-0.42333 l 44.44996,-44.44997 v -18.20332 h -84.24327 l -18.62665,18.62665 v 25.39998 z m 196.84946,39.36997 V 384.59507 h 51.22329 v 39.36997 l 39.7933,-39.36997 h 49.9533 v 51.22329 H 935.44662 L 895.22998,476.035 v 129.96323 z m 149.43623,0 L 1084.4595,444.28502 L 994.28959,294.0018 h 60.53661 l 69.85,121.07324 h 10.1599 l 69.85,-121.07324 h 60.5366 l -89.7466,150.28322 l 91.0166,161.71321 h -60.9599 L 1134.8361,476.035 h -10.1599 l -70.2733,129.96323 z m 311.15018,0 V 294.0018 h 68.1566 l 123.6132,218.0165 V 294.0018 h 53.34 v 311.99643 h -57.9966 L 1368.093,387.98173 h -10.5833 v 218.0165 z m 350.0965,0 l -45.7199,-46.98996 v -218.0165 l 46.9899,-46.98997 h 154.9399 l 43.18,42.75664 l -33.8667,33.86664 l -30.4799,-30.05665 H 1680.513 l -18.6267,18.62666 l 0.4233,181.60986 l 18.2034,18.62665 h 81.2799 l 48.6833,-43.6033 v -34.71331 h -71.12 v -46.56663 h 115.1466 v 171.44987 h -44.0266 v -32.17331 l -35.56,32.17331 z"
         id="text1" aria-label="SearXNG" />
   </g>
</svg>